<svg id="Layer_1" data-name="Layer 1" xmlns="http://www.w3.org/2000/svg" width="387.83" height="106.36" viewBox="0 0 387.83 106.36"><path d="M383.75,425.55h23.7l28.38,74.32h.3l14.92-74.32h21.06L450,530h-23l-28.67-73.29h-.29L383.17,530H361.81Z" transform="translate(-361.81 -425.55)" fill="#fff"/><path d="M472.11,499.43q0-19.9,11.93-33.5t31.52-13.61q16.1,0,25.68,8.12t9.58,23.92q0,20.47-11.92,34T506.79,531.9q-16.25,0-25.46-8.26T472.11,499.43Zm20.78,0a18.59,18.59,0,0,0,3.95,12.07q3.95,4.9,11,4.9A16.94,16.94,0,0,0,520.39,511a30.73,30.73,0,0,0,7.46-12.36,45.94,45.94,0,0,0,2.2-14q0-16.68-15.22-16.68-10.38,0-16.16,10.1A42.27,42.27,0,0,0,492.89,499.43Z" transform="translate(-361.81 -425.55)" fill="#fff"/><path d="M571.74,454.37h20.92L576.57,530H555.79ZM595,442.66H574.08l3.8-17.11H598.8Z" transform="translate(-361.81 -425.55)" fill="#fff"/><path d="M646.79,476.46q-.3-10.24-11.71-10.24-12.72,0-12.72,7.46a5.3,5.3,0,0,0,2.12,4.24q2.12,1.75,7.39,3.37l10.38,3.36q9.36,2.93,14.63,7.9t5.27,13.75a21.29,21.29,0,0,1-5.49,14.93,28.91,28.91,0,0,1-13.24,8.33,59.6,59.6,0,0,1-17.26,2.34,53.6,53.6,0,0,1-15-2,25.87,25.87,0,0,1-11.92-7.53,19.76,19.76,0,0,1-5.12-13.9v-3.08h19.17v2.49a8.4,8.4,0,0,0,4.53,7.54,19.92,19.92,0,0,0,10.39,2.7A18.61,18.61,0,0,0,637.5,516a7.35,7.35,0,0,0,3.88-6.88c0-2.43-.59-4.19-1.76-5.26a17.64,17.64,0,0,0-5.71-3.08L618,495.62q-8.64-2.92-12.51-6.95t-3.88-12.36a19.46,19.46,0,0,1,5.49-14,28.6,28.6,0,0,1,12.73-7.83,54.19,54.19,0,0,1,15.28-2.12q14.19,0,22.75,5.34t8.27,18.8Z" transform="translate(-361.81 -425.55)" fill="#fff"/><path d="M692.72,497.23a4.79,4.79,0,0,0-.14,1.32v3.07c0,4.59,1.41,8.19,4.24,10.83s7,3.95,12.44,3.95a14.46,14.46,0,0,0,7-1.76,17.89,17.89,0,0,0,4.83-3.58,41.33,41.33,0,0,0,3.65-5.05h20.78q-5.13,13.32-14.19,19.6t-25,6.29q-15.66,0-24.65-8.48t-9-24.43q0-19,11.56-32.85t30.14-13.82q16.23,0,25.74,8.48t9.51,24.58a70.1,70.1,0,0,1-1.17,11.85Zm36.87-13.16q0-16.1-14-16.1-14.92,0-20.63,16.1Z" transform="translate(-361.81 -425.55)" fill="#fff"/></svg>